# xmcd
#
# Track frame offsets:
#	195
#	4443
#	18123
#	32713
#	112722
#	117381
#	132157
#	150433
#	156792
#	174882
#	182756
#	187843
#
# Disc length: 2771 seconds
#
# Revision: 3
# Processed by: cddbd v1.5.2PL0 Copyright (c) Steve Scherf et al.
# Submitted via: audiograbber 1.83.01
#
DISCID=820ad10c
DTITLE=Jerry Reed - Flyin' High
DYEAR=1995
DGENRE=country
TTITLE0=Introduction
TTITLE1=You're Lookin' Good
TTITLE2=Diggin' Up Bones (Tryin' Stuff On)
TTITLE3=F-16 Monologue
TTITLE4=Introduction to "The Bird"
TTITLE5=The Bird
TTITLE6=Blindsided Me
TTITLE7=Intro to "I Wish I Hadn't Done It My Way"
TTITLE8=I Wish I Hadn't Done It My Way
TTITLE9=Bassin' Bubba
TTITLE10=Intro to "If It Ain't Broke"
TTITLE11=If It Ain't Broke
EXTD=Released on Southern Tracks Records in the mid '90's.
EXTT0=Introduction
EXTT1=
EXTT2=
EXTT3=
EXTT4=
EXTT5=
EXTT6=
EXTT7=
EXTT8=
EXTT9=
EXTT10=
EXTT11=
PLAYORDER=
